# File created by Blade
# Date/Time:  Fri Jan 16 19:00:24 2015
# Frame Rate: 120.000 fps
#------------------------------------------------------
:FULLY-SPECIFIED
:DEGREES
1170
root 21.307288 36.431653 -22.401940 -185.899023 -15.313767 -170.515439
Spine 3.049340 27.737340 -36.944527
Head -21.334116 -40.756838 9.150846
LeftShoulder -7.366993 -23.489153 1.360787
LeftArm -30.629346 -4.394484 -53.948159
LeftForeArm -5.554466 -0.000000 22.715030
LeftHand -2.255487 -0.000000 8.195839
LeftHandThumb1 -26.253704 0.000000 33.147579
RightShoulder -3.740749 -9.705691 -2.855596
RightArm 40.478883 -31.381240 61.917104
RightForeArm -40.586997 -0.000000 51.415525
RightHand -1.448657 -0.000000 3.634965
RightHandThumb1 -24.326973 -0.000000 -32.862282
LeftUpLeg 2.024897 3.077555 6.506387
LeftLeg 5.639429 -0.000000 -0.000000
LeftFoot -20.660493 19.132180 -13.167684
LeftToeBase 24.394164 -0.000000 -0.000000
RightUpLeg -19.016535 -5.361297 8.998614
RightLeg 49.745864 -0.000000 -0.000000
RightFoot -14.897259 -31.839399 16.574886
RightToeBase 13.339353 -0.000000 -0.000000
1171
root 21.288984 36.404437 -22.426499 -185.676277 -14.910976 -170.940963
Spine 2.693896 27.528580 -36.968218
Head -21.292371 -40.603989 9.134604
LeftShoulder -7.511466 -23.467233 1.403026
LeftArm -30.581542 -4.456931 -53.968828
LeftForeArm -5.451030 -0.000000 22.919089
LeftHand -2.210906 -0.000000 8.179549
LeftHandThumb1 -26.253704 0.000000 33.147579
RightShoulder -3.760759 -9.673836 -2.719943
RightArm 39.360495 -30.707649 62.848219
RightForeArm -40.129274 0.000000 51.133730
RightHand -1.526775 0.000000 3.480914
RightHandThumb1 -24.326973 -0.000000 -32.862282
LeftUpLeg 2.136403 2.867767 6.037243
LeftLeg 5.498616 -0.000000 -0.000000
LeftFoot -20.737844 19.780994 -13.226638
LeftToeBase 24.107103 -0.000000 -0.000000
RightUpLeg -17.985622 -5.350920 8.837313
RightLeg 48.050485 -0.000000 -0.000000
RightFoot -15.955177 -31.148053 17.132472
RightToeBase 12.987238 -0.000000 -0.000000
1172
root 21.275240 36.375875 -22.451989 -185.485456 -14.456265 -171.319822
Spine 2.342450 27.399859 -36.915289
Head -21.243051 -40.460735 9.139336
LeftShoulder -7.630752 -23.448769 1.454583
LeftArm -30.512986 -4.605341 -54.017661
LeftForeArm -5.206945 -0.000000 23.112724
LeftHand -2.268022 -0.000000 8.163652
LeftHandThumb1 -26.253704 0.000000 33.147579
RightShoulder -3.823496 -9.640290 -2.606664
RightArm 38.364541 -30.171253 63.555162
RightForeArm -39.540890 -0.000000 50.932733
RightHand -1.893293 -0.000000 3.276656
RightHandThumb1 -24.326973 -0.000000 -32.862282
LeftUpLeg 2.186620 3.069959 5.665588
LeftLeg 5.515438 -0.000000 -0.000000
LeftFoot -20.966844 20.044751 -13.300722
LeftToeBase 24.270103 -0.000000 -0.000000
RightUpLeg -16.964978 -5.294245 8.732389
RightLeg 46.356279 -0.000000 -0.000000
RightFoot -17.141901 -30.507847 17.915927
RightToeBase 12.727581 -0.000000 -0.000000
1173
root 21.263208 36.346917 -22.474518 -185.280692 -13.991235 -171.695711
Spine 1.978350 27.219988 -36.858644
Head -21.194508 -40.254788 9.167119
LeftShoulder -7.761879 -23.365578 1.552193
LeftArm -30.397028 -4.856600 -54.097248
LeftForeArm -5.110351 -0.000000 23.264380
LeftHand -2.196981 -0.000000 8.100254
LeftHandThumb1 -26.253704 0.000000 33.147579
RightShoulder -3.829988 -9.595229 -2.478332
RightArm 37.361716 -29.572591 64.273159
RightForeArm -38.876928 -0.000000 50.773693
RightHand -1.958280 -0.000000 3.085511
RightHandThumb1 -24.326973 -0.000000 -32.862282
LeftUpLeg 2.256288 3.068753 5.274216
LeftLeg 5.453397 -0.000000 -0.000000
LeftFoot -21.156099 20.525729 -13.374144
LeftToeBase 24.345175 -0.000000 -0.000000
RightUpLeg -15.998852 -5.225396 8.623533
RightLeg 44.691550 -0.000000 -0.000000
RightFoot -18.238040 -29.928705 18.679677
RightToeBase 12.789439 -0.000000 -0.000000
1174
root 21.243628 36.320103 -22.499249 -185.122833 -13.491803 -172.133649
Spine 1.667986 27.125014 -36.833593
Head -21.199431 -40.110481 9.282231
LeftShoulder -7.843394 -23.303887 1.579004
LeftArm -30.313141 -4.920205 -54.210131
LeftForeArm -5.120309 -0.000000 23.529315
LeftHand -2.116896 -0.000000 8.202001
LeftHandThumb1 -26.253704 0.000000 33.147579
RightShoulder -3.915791 -9.698319 -2.315036
RightArm 36.682237 -28.977911 64.775521
RightForeArm -38.348325 0.000000 50.592725
RightHand -2.074744 -0.000000 3.116965
RightHandThumb1 -24.326973 -0.000000 -32.862282
LeftUpLeg 2.438642 3.023038 4.804824
LeftLeg 5.316567 -0.000000 -0.000000
LeftFoot -21.285047 21.076791 -13.521623
LeftToeBase 24.121962 -0.000000 -0.000000
RightUpLeg -15.002529 -5.213973 8.429285
RightLeg 43.052435 -0.000000 -0.000000
RightFoot -19.129918 -29.298683 19.301516
RightToeBase 12.843779 -0.000000 -0.000000
1175
root 21.231847 36.292879 -22.523727 -184.981223 -12.942334 -172.488843
Spine 1.346741 27.021653 -36.707112
Head -21.188471 -39.842024 9.367996
LeftShoulder -7.925424 -23.290571 1.587972
LeftArm -30.294034 -4.877402 -54.352049
LeftForeArm -5.078787 -0.000000 23.898005
LeftHand -2.289744 -0.000000 8.322459
LeftHandThumb1 -26.253704 0.000000 33.147579
RightShoulder -4.016298 -9.838353 -2.135240
RightArm 36.159646 -28.522482 65.054858
RightForeArm -37.931696 -0.000000 50.392118
RightHand -2.143987 -0.000000 2.770646
RightHandThumb1 -24.326973 -0.000000 -32.862282
LeftUpLeg 2.616155 3.006145 4.433236
LeftLeg 5.177922 -0.000000 -0.000000
LeftFoot -21.465328 21.629447 -13.612080
LeftToeBase 23.994448 -0.000000 -0.000000
RightUpLeg -14.004149 -5.221582 8.305952
RightLeg 41.383009 -0.000000 -0.000000
RightFoot -19.816648 -28.567048 19.712115
RightToeBase 13.327627 -0.000000 -0.000000
1176
root 21.222506 36.266900 -22.552455 -184.852332 -12.396180 -172.854448
Spine 1.029262 26.958859 -36.599232
Head -21.155387 -39.620092 9.517599
LeftShoulder -7.992585 -23.218899 1.645803
LeftArm -30.188405 -4.844578 -54.561092
LeftForeArm -5.155088 -0.000000 24.212615
LeftHand -2.377570 -0.000000 8.548166
LeftHandThumb1 -26.253704 0.000000 33.147579
RightShoulder -4.086973 -9.955845 -1.983221
RightArm 35.582667 -28.094314 65.392748
RightForeArm -37.540805 0.000000 50.289754
RightHand -2.394817 -0.000000 2.483674
RightHandThumb1 -24.326973 -0.000000 -32.862282
LeftUpLeg 2.817387 3.032046 4.065443
LeftLeg 5.012969 -0.000000 -0.000000
LeftFoot -21.585878 22.061378 -13.713818
LeftToeBase 24.171409 -0.000000 -0.000000
RightUpLeg -13.003638 -5.236589 8.168695
RightLeg 39.707554 -0.000000 -0.000000
RightFoot -20.364109 -28.021949 20.250726
RightToeBase 13.049552 -0.000000 -0.000000
1177
root 21.210730 36.240337 -22.579309 -184.712728 -11.834569 -173.236502
Spine 0.706704 26.861967 -36.489691
Head -21.095632 -39.313506 9.646302
LeftShoulder -8.055146 -23.178543 1.673920
LeftArm -30.106539 -4.741808 -54.747023
LeftForeArm -5.192258 -0.000000 24.501883
LeftHand -2.423318 -0.000000 8.562566
LeftHandThumb1 -26.253704 0.000000 33.147579
RightShoulder -4.191731 -10.214405 -1.823119
RightArm 35.240210 -27.656688 65.654804
RightForeArm -37.337540 -0.000000 50.118155
RightHand -2.555307 0.000000 2.242121
RightHandThumb1 -24.326973 -0.000000 -32.862282
LeftUpLeg 2.993387 3.048227 3.684557
LeftLeg 4.894167 -0.000000 -0.000000
LeftFoot -21.701239 22.495692 -13.769484
LeftToeBase 23.911776 -0.000000 -0.000000
RightUpLeg -12.051746 -5.287377 8.006340
RightLeg 38.049044 -0.000000 -0.000000
RightFoot -20.732166 -27.536452 20.589773
RightToeBase 13.338548 -0.000000 -0.000000
1178
root 21.180788 36.209620 -22.602602 -184.528099 -11.511791 -173.645130
Spine 0.489902 26.558095 -36.339108
Head -21.028200 -39.066195 9.807239
LeftShoulder -8.140263 -23.106315 1.671199
LeftArm -29.983502 -4.657192 -54.943332
LeftForeArm -5.254055 -0.000000 24.779258
LeftHand -2.435216 -0.000000 8.639341
LeftHandThumb1 -26.253704 0.000000 33.147579
RightShoulder -4.356492 -10.432602 -1.602828
RightArm 34.903168 -27.418525 65.663761
RightForeArm -37.134641 -0.000000 50.014396
RightHand -2.729199 -0.000000 2.012697
RightHandThumb1 -24.326973 -0.000000 -32.862282
LeftUpLeg 3.054872 2.867686 3.208019
LeftLeg 4.799515 -0.000000 -0.000000
LeftFoot -21.871067 22.972990 -13.928917
LeftToeBase 23.738772 -0.000000 -0.000000
RightUpLeg -11.157934 -5.742791 7.727315
RightLeg 36.410562 -0.000000 -0.000000
RightFoot -21.016714 -26.940251 20.803430
RightToeBase 13.030401 -0.000000 -0.000000
1179
root 21.175606 36.184981 -22.632134 -184.433398 -10.862892 -174.003035
Spine 0.140352 26.532277 -36.215155
Head -20.876180 -38.827755 9.983074
LeftShoulder -8.175090 -23.054364 1.773785
LeftArm -29.862326 -4.699449 -55.160286
LeftForeArm -5.124565 -0.000000 24.961769
LeftHand -2.402742 0.000000 8.660483
LeftHandThumb1 -26.253704 0.000000 33.147579
RightShoulder -4.396255 -10.590800 -1.442687
RightArm 34.417604 -26.993700 66.005042
RightForeArm -36.990505 0.000000 49.974672
RightHand -2.725987 0.000000 1.982097
RightHandThumb1 -24.326973 -0.000000 -32.862282
LeftUpLeg 3.283579 3.115425 2.891778
LeftLeg 4.659044 -0.000000 -0.000000
LeftFoot -21.977367 23.176677 -14.014349
LeftToeBase 23.595312 -0.000000 -0.000000
RightUpLeg -10.202726 -5.899422 7.547740
RightLeg 34.755926 -0.000000 -0.000000
RightFoot -21.195706 -26.398786 21.011512
RightToeBase 13.009818 -0.000000 -0.000000
1180
root 21.183491 36.161695 -22.651945 -184.275860 -10.124575 -174.336888
Spine -0.299304 26.522233 -36.126920
Head -20.724819 -38.446239 10.199784
LeftShoulder -8.211050 -23.032342 1.907636
LeftArm -29.731306 -4.688496 -55.398103
LeftForeArm -5.097409 -0.000000 25.157979
LeftHand -2.487259 -0.000000 8.583839
LeftHandThumb1 -26.253704 0.000000 33.147579
RightShoulder -4.446171 -10.771720 -1.261988
RightArm 34.039046 -26.629512 66.236843
RightForeArm -37.232892 0.000000 49.958529
RightHand -2.795119 -0.000000 2.027111
RightHandThumb1 -24.326973 -0.000000 -32.862282
LeftUpLeg 3.415579 3.503006 2.621630
LeftLeg 4.542041 -0.000000 -0.000000
LeftFoot -22.049434 23.358753 -14.095479
LeftToeBase 23.471781 -0.000000 -0.000000
RightUpLeg -9.352513 -5.822577 7.426577
RightLeg 33.082892 -0.000000 -0.000000
RightFoot -21.337780 -25.980379 21.405896
RightToeBase 12.817971 -0.000000 -0.000000
1181
root 21.181865 36.136563 -22.668553 -184.093868 -9.496070 -174.692406
Spine -0.684659 26.423348 -36.024201
Head -20.618203 -38.195128 10.433682
LeftShoulder -8.256641 -22.940355 2.003195
LeftArm -29.495255 -4.711892 -55.640128
LeftForeArm -4.908195 -0.000000 25.304846
LeftHand -2.525771 -0.000000 8.568522
LeftHandThumb1 -26.253704 0.000000 33.147579
RightShoulder -4.589932 -11.019538 -1.015105
RightArm 33.793496 -26.345958 66.299557
RightForeArm -37.346870 0.000000 49.920352
RightHand -2.752772 0.000000 2.014683
RightHandThumb1 -24.326973 -0.000000 -32.862282
LeftUpLeg 3.440457 3.896328 2.311300
LeftLeg 4.533379 -0.000000 -0.000000
LeftFoot -22.134597 23.445663 -14.135721
LeftToeBase 23.395033 -0.000000 -0.000000
RightUpLeg -8.563250 -5.885886 7.247016
RightLeg 31.435346 -0.000000 -0.000000
RightFoot -21.423278 -25.638235 21.815628
RightToeBase 12.964177 -0.000000 -0.000000
